<?xml version="1.0" encoding="UTF-8"?>
<svg width="1024" height="1024" viewBox="0 0 512 512" fill="none" xmlns="http://www.w3.org/2000/svg">
    <!-- Transparent background - black will be applied by Android -->
    
    <!-- Digital Iris - pure white sunburst -->
    <g transform="translate(256, 256)">
        <!-- Main white iris lines (sunburst) -->
        <g>
            <line x1="0" y1="-50" x2="0" y2="-140" stroke="#ffffff" stroke-width="8" stroke-linecap="round" transform="rotate(0)"/>
            <line x1="0" y1="-50" x2="0" y2="-140" stroke="#ffffff" stroke-width="8" stroke-linecap="round" transform="rotate(15)"/>
            <line x1="0" y1="-50" x2="0" y2="-140" stroke="#ffffff" stroke-width="8" stroke-linecap="round" transform="rotate(30)"/>
            <line x1="0" y1="-50" x2="0" y2="-140" stroke="#ffffff" stroke-width="8" stroke-linecap="round" transform="rotate(45)"/>
            <line x1="0" y1="-50" x2="0" y2="-140" stroke="#ffffff" stroke-width="8" stroke-linecap="round" transform="rotate(60)"/>
            <line x1="0" y1="-50" x2="0" y2="-140" stroke="#ffffff" stroke-width="8" stroke-linecap="round" transform="rotate(75)"/>
            <line x1="0" y1="-50" x2="0" y2="-140" stroke="#ffffff" stroke-width="8" stroke-linecap="round" transform="rotate(90)"/>
            <line x1="0" y1="-50" x2="0" y2="-140" stroke="#ffffff" stroke-width="8" stroke-linecap="round" transform="rotate(105)"/>
            <line x1="0" y1="-50" x2="0" y2="-140" stroke="#ffffff" stroke-width="8" stroke-linecap="round" transform="rotate(120)"/>
            <line x1="0" y1="-50" x2="0" y2="-140" stroke="#ffffff" stroke-width="8" stroke-linecap="round" transform="rotate(135)"/>
            <line x1="0" y1="-50" x2="0" y2="-140" stroke="#ffffff" stroke-width="8" stroke-linecap="round" transform="rotate(150)"/>
            <line x1="0" y1="-50" x2="0" y2="-140" stroke="#ffffff" stroke-width="8" stroke-linecap="round" transform="rotate(165)"/>
            <line x1="0" y1="-50" x2="0" y2="-140" stroke="#ffffff" stroke-width="8" stroke-linecap="round" transform="rotate(180)"/>
            <line x1="0" y1="-50" x2="0" y2="-140" stroke="#ffffff" stroke-width="8" stroke-linecap="round" transform="rotate(195)"/>
            <line x1="0" y1="-50" x2="0" y2="-140" stroke="#ffffff" stroke-width="8" stroke-linecap="round" transform="rotate(210)"/>
            <line x1="0" y1="-50" x2="0" y2="-140" stroke="#ffffff" stroke-width="8" stroke-linecap="round" transform="rotate(225)"/>
            <line x1="0" y1="-50" x2="0" y2="-140" stroke="#ffffff" stroke-width="8" stroke-linecap="round" transform="rotate(240)"/>
            <line x1="0" y1="-50" x2="0" y2="-140" stroke="#ffffff" stroke-width="8" stroke-linecap="round" transform="rotate(255)"/>
            <line x1="0" y1="-50" x2="0" y2="-140" stroke="#ffffff" stroke-width="8" stroke-linecap="round" transform="rotate(270)"/>
            <line x1="0" y1="-50" x2="0" y2="-140" stroke="#ffffff" stroke-width="8" stroke-linecap="round" transform="rotate(285)"/>
            <line x1="0" y1="-50" x2="0" y2="-140" stroke="#ffffff" stroke-width="8" stroke-linecap="round" transform="rotate(300)"/>
            <line x1="0" y1="-50" x2="0" y2="-140" stroke="#ffffff" stroke-width="8" stroke-linecap="round" transform="rotate(315)"/>
            <line x1="0" y1="-50" x2="0" y2="-140" stroke="#ffffff" stroke-width="8" stroke-linecap="round" transform="rotate(330)"/>
            <line x1="0" y1="-50" x2="0" y2="-140" stroke="#ffffff" stroke-width="8" stroke-linecap="round" transform="rotate(345)"/>
            <circle r="150" stroke="#ffffff" stroke-width="3" stroke-dasharray="20, 40" opacity="0.5" fill="none"/>
        </g>
        
        <!-- Pupil -->
        <circle r="35" fill="#ffffff"/>
        <circle cx="-12" cy="-12" r="10" fill="#666666" opacity="0.5"/>
    </g>
</svg>