<?xml version="1.0" encoding="UTF-8"?>
<svg width="64" height="64" viewBox="0 0 512 512" fill="none" xmlns="http://www.w3.org/2000/svg">
    <!-- Background -->
    <rect width="512" height="512" rx="12" fill="#1a1a1a"/>
    
    <!-- Digital Iris (centered, no crosshairs for icon) -->
    <g transform="translate(256, 256)">
        <g>
            <line x1="0" y1="-40" x2="0" y2="-120" stroke="#ffffff" stroke-width="5" stroke-linecap="round" transform="rotate(0)"/>
            <line x1="0" y1="-40" x2="0" y2="-120" stroke="#ffffff" stroke-width="5" stroke-linecap="round" transform="rotate(15)"/>
            <line x1="0" y1="-40" x2="0" y2="-120" stroke="#ffffff" stroke-width="5" stroke-linecap="round" transform="rotate(30)"/>
            <line x1="0" y1="-40" x2="0" y2="-120" stroke="#ffffff" stroke-width="5" stroke-linecap="round" transform="rotate(45)"/>
            <line x1="0" y1="-40" x2="0" y2="-120" stroke="#ffffff" stroke-width="5" stroke-linecap="round" transform="rotate(60)"/>
            <line x1="0" y1="-40" x2="0" y2="-120" stroke="#ffffff" stroke-width="5" stroke-linecap="round" transform="rotate(75)"/>
            <line x1="0" y1="-40" x2="0" y2="-120" stroke="#ffffff" stroke-width="5" stroke-linecap="round" transform="rotate(90)"/>
            <line x1="0" y1="-40" x2="0" y2="-120" stroke="#ffffff" stroke-width="5" stroke-linecap="round" transform="rotate(105)"/>
            <line x1="0" y1="-40" x2="0" y2="-120" stroke="#ffffff" stroke-width="5" stroke-linecap="round" transform="rotate(120)"/>
            <line x1="0" y1="-40" x2="0" y2="-120" stroke="#ffffff" stroke-width="5" stroke-linecap="round" transform="rotate(135)"/>
            <line x1="0" y1="-40" x2="0" y2="-120" stroke="#ffffff" stroke-width="5" stroke-linecap="round" transform="rotate(150)"/>
            <line x1="0" y1="-40" x2="0" y2="-120" stroke="#ffffff" stroke-width="5" stroke-linecap="round" transform="rotate(165)"/>
            <line x1="0" y1="-40" x2="0" y2="-120" stroke="#ffffff" stroke-width="5" stroke-linecap="round" transform="rotate(180)"/>
            <line x1="0" y1="-40" x2="0" y2="-120" stroke="#ffffff" stroke-width="5" stroke-linecap="round" transform="rotate(195)"/>
            <line x1="0" y1="-40" x2="0" y2="-120" stroke="#ffffff" stroke-width="5" stroke-linecap="round" transform="rotate(210)"/>
            <line x1="0" y1="-40" x2="0" y2="-120" stroke="#ffffff" stroke-width="5" stroke-linecap="round" transform="rotate(225)"/>
            <line x1="0" y1="-40" x2="0" y2="-120" stroke="#ffffff" stroke-width="5" stroke-linecap="round" transform="rotate(240)"/>
            <line x1="0" y1="-40" x2="0" y2="-120" stroke="#ffffff" stroke-width="5" stroke-linecap="round" transform="rotate(255)"/>
            <line x1="0" y1="-40" x2="0" y2="-120" stroke="#ffffff" stroke-width="5" stroke-linecap="round" transform="rotate(270)"/>
            <line x1="0" y1="-40" x2="0" y2="-120" stroke="#ffffff" stroke-width="5" stroke-linecap="round" transform="rotate(285)"/>
            <line x1="0" y1="-40" x2="0" y2="-120" stroke="#ffffff" stroke-width="5" stroke-linecap="round" transform="rotate(300)"/>
            <line x1="0" y1="-40" x2="0" y2="-120" stroke="#ffffff" stroke-width="5" stroke-linecap="round" transform="rotate(315)"/>
            <line x1="0" y1="-40" x2="0" y2="-120" stroke="#ffffff" stroke-width="5" stroke-linecap="round" transform="rotate(330)"/>
            <line x1="0" y1="-40" x2="0" y2="-120" stroke="#ffffff" stroke-width="5" stroke-linecap="round" transform="rotate(345)"/>
            <circle r="140" stroke="#ffffff" stroke-width="2" stroke-dasharray="20, 40" opacity="0.5" fill="none"/>
        </g>
        <circle r="30" fill="#ffffff"/>
        <circle cx="-10" cy="-10" r="8" fill="#1a1a1a" opacity="0.6"/>
    </g>
</svg>