<?xml version="1.0" encoding="UTF-8"?>
<svg width="512" height="512" viewBox="0 0 512 512" fill="none" xmlns="http://www.w3.org/2000/svg">
    <rect width="512" height="512" fill="#1a1a1a"/>
    
    <!-- Crosshair Guides -->
    <g opacity="0.3">
        <line x1="256" y1="0" x2="256" y2="512" stroke="#ffffff" stroke-width="1"/>
        <line x1="0" y1="256" x2="512" y2="256" stroke="#ffffff" stroke-width="1"/>
        
        <!-- Corner Brackets -->
        <path d="M100 100 L140 100 M100 100 L100 140" stroke="#ffffff" stroke-width="2"/>
        <path d="M412 100 L372 100 M412 100 L412 140" stroke="#ffffff" stroke-width="2"/>
        <path d="M100 412 L140 412 M100 412 L100 372" stroke="#ffffff" stroke-width="2"/>
        <path d="M412 412 L372 412 M412 412 L412 372" stroke="#ffffff" stroke-width="2"/>
    </g>

    <!-- Digital Iris -->
    <g transform="translate(256, 256)">
        <!-- Iris Lines (rotating element in app) -->
        <g>
            <line x1="0" y1="-40" x2="0" y2="-120" stroke="#ffffff" stroke-width="4" stroke-linecap="round" transform="rotate(0)"/>
            <line x1="0" y1="-40" x2="0" y2="-120" stroke="#ffffff" stroke-width="4" stroke-linecap="round" transform="rotate(15)"/>
            <line x1="0" y1="-40" x2="0" y2="-120" stroke="#ffffff" stroke-width="4" stroke-linecap="round" transform="rotate(30)"/>
            <line x1="0" y1="-40" x2="0" y2="-120" stroke="#ffffff" stroke-width="4" stroke-linecap="round" transform="rotate(45)"/>
            <line x1="0" y1="-40" x2="0" y2="-120" stroke="#ffffff" stroke-width="4" stroke-linecap="round" transform="rotate(60)"/>
            <line x1="0" y1="-40" x2="0" y2="-120" stroke="#ffffff" stroke-width="4" stroke-linecap="round" transform="rotate(75)"/>
            <line x1="0" y1="-40" x2="0" y2="-120" stroke="#ffffff" stroke-width="4" stroke-linecap="round" transform="rotate(90)"/>
            <line x1="0" y1="-40" x2="0" y2="-120" stroke="#ffffff" stroke-width="4" stroke-linecap="round" transform="rotate(105)"/>
            <line x1="0" y1="-40" x2="0" y2="-120" stroke="#ffffff" stroke-width="4" stroke-linecap="round" transform="rotate(120)"/>
            <line x1="0" y1="-40" x2="0" y2="-120" stroke="#ffffff" stroke-width="4" stroke-linecap="round" transform="rotate(135)"/>
            <line x1="0" y1="-40" x2="0" y2="-120" stroke="#ffffff" stroke-width="4" stroke-linecap="round" transform="rotate(150)"/>
            <line x1="0" y1="-40" x2="0" y2="-120" stroke="#ffffff" stroke-width="4" stroke-linecap="round" transform="rotate(165)"/>
            <line x1="0" y1="-40" x2="0" y2="-120" stroke="#ffffff" stroke-width="4" stroke-linecap="round" transform="rotate(180)"/>
            <line x1="0" y1="-40" x2="0" y2="-120" stroke="#ffffff" stroke-width="4" stroke-linecap="round" transform="rotate(195)"/>
            <line x1="0" y1="-40" x2="0" y2="-120" stroke="#ffffff" stroke-width="4" stroke-linecap="round" transform="rotate(210)"/>
            <line x1="0" y1="-40" x2="0" y2="-120" stroke="#ffffff" stroke-width="4" stroke-linecap="round" transform="rotate(225)"/>
            <line x1="0" y1="-40" x2="0" y2="-120" stroke="#ffffff" stroke-width="4" stroke-linecap="round" transform="rotate(240)"/>
            <line x1="0" y1="-40" x2="0" y2="-120" stroke="#ffffff" stroke-width="4" stroke-linecap="round" transform="rotate(255)"/>
            <line x1="0" y1="-40" x2="0" y2="-120" stroke="#ffffff" stroke-width="4" stroke-linecap="round" transform="rotate(270)"/>
            <line x1="0" y1="-40" x2="0" y2="-120" stroke="#ffffff" stroke-width="4" stroke-linecap="round" transform="rotate(285)"/>
            <line x1="0" y1="-40" x2="0" y2="-120" stroke="#ffffff" stroke-width="4" stroke-linecap="round" transform="rotate(300)"/>
            <line x1="0" y1="-40" x2="0" y2="-120" stroke="#ffffff" stroke-width="4" stroke-linecap="round" transform="rotate(315)"/>
            <line x1="0" y1="-40" x2="0" y2="-120" stroke="#ffffff" stroke-width="4" stroke-linecap="round" transform="rotate(330)"/>
            <line x1="0" y1="-40" x2="0" y2="-120" stroke="#ffffff" stroke-width="4" stroke-linecap="round" transform="rotate(345)"/>
            
            <!-- Orbital Ring -->
            <circle r="140" stroke="#ffffff" stroke-width="2" stroke-dasharray="20, 40" opacity="0.5" fill="none"/>
        </g>

        <!-- Pupil -->
        <circle r="30" fill="#ffffff"/>
        
        <!-- Reflection Glint -->
        <circle cx="-10" cy="-10" r="8" fill="#1a1a1a" opacity="0.6"/>
    </g>
</svg>